# xmcd
#
# Track frame offsets:
#	183
#	18210
#	34723
#	51350
#	73118
#	86270
#	101383
#	112500
#	126573
#	142533
#	159523
#	172270
#	188540
#	203993
#
# Disc length: 2956 seconds
#
# Revision: 1
# Processed by: cddbd v1.4PL0 Copyright (c) Steve Scherf et al.
# Submitted via: audiograbber 1.81.01
#
DISCID=af0b8a0e
DTITLE=Rory Daniels - Greatest Hits
DYEAR=1900
DGENRE=
TTITLE0=Last Cheaters Waltz
TTITLE1=The Wind Beneath My Wings
TTITLE2=I Will Love You All My Life
TTITLE3=Mr Jones
TTITLE4=She Can't Say That Anymore
TTITLE5=He Stopped Loving Her Today
TTITLE6=Hello Darlin'
TTITLE7=Do You Wanna Go To Heaven
TTITLE8=Seven Spanish Angels
TTITLE9=Part Of Me
TTITLE10=Hearts On Fire
TTITLE11=Sometimes We Touch
TTITLE12=Love Don't Come Any Better Than This
TTITLE13=All The Magic Is Gone
EXTD=
EXTT0=
EXTT1=
EXTT2=
EXTT3=
EXTT4=
EXTT5=
EXTT6=
EXTT7=
EXTT8=
EXTT9=
EXTT10=
EXTT11=
EXTT12=
EXTT13=
PLAYORDER=
